<svg width="947" height="260" viewBox="0 0 947 260" fill="none" xmlns="http://www.w3.org/2000/svg">
<path d="M137.5 150.125L37.0929 208.1L22.3408 193.384L110.361 134.385L137.5 150.125Z" fill="white"/>
<path d="M139.77 154.047L39.2346 211.8L44.6341 231.902L139.865 185.362L139.77 154.047Z" fill="white"/>
<path d="M143.761 154.046L244.296 211.8L238.896 231.902L143.665 185.361L143.761 154.046Z" fill="white"/>
<path d="M146.03 150.125L246.437 208.1L261.19 193.384L173.169 134.385L146.03 150.125Z" fill="white"/>
<path d="M143.761 145.841L143.633 30.113L163.785 24.7266L170.995 130.266L143.761 145.841Z" fill="white"/>
<path d="M139.222 145.841L139.35 30.113L119.198 24.7266L111.987 130.266L139.222 145.841Z" fill="white"/>
<path d="M336.911 194.938L294.091 64.938H320.342L352.922 168.195L384.944 64.938H411.38L368.374 194.938H336.911Z" fill="white"/>
<path d="M453.749 196.609C431.967 196.609 417.818 180.267 417.818 160.395V98.3666H441.089V154.452C441.089 166.709 449.653 174.509 460.451 174.509C472.18 174.509 479.999 165.967 479.999 154.452V98.3666H503.271V175.809L509.973 194.938H484.281L480.744 184.909C476.462 190.481 467.526 196.609 453.749 196.609Z" fill="white"/>
<path d="M524.989 194.938V57.5095H548.261V194.938H524.989Z" fill="white"/>
<path d="M577.083 194.938V119.538H560.7V98.3666H577.641V74.5952H600.355V98.3666H624.185V119.538H600.355V172.652H624.557V194.938H577.083Z" fill="white"/>
<path d="M641.545 194.938V98.3666H664.817V194.938H641.545ZM637.636 68.4666C637.636 59.5523 644.152 53.238 653.088 53.238C661.838 53.238 668.54 59.5523 668.54 68.4666C668.54 77.1952 661.838 83.5095 653.088 83.5095C644.152 83.5095 637.636 77.1952 637.636 68.4666Z" fill="white"/>
<path d="M722.448 196.609C697.873 196.609 684.282 183.424 679.814 170.424L698.99 161.138C701.969 168.381 710.16 176.181 723.379 176.181C734.735 176.181 740.693 172.281 740.693 166.895C740.693 162.624 737.341 159.652 730.825 158.352L711.65 154.824C697.128 152.038 685.027 144.052 685.027 126.595C685.027 108.581 701.782 96.6952 723.565 96.6952C747.581 96.6952 759.124 109.138 763.033 121.024L744.23 130.124C742.554 123.438 735.107 116.752 723.192 116.752C713.884 116.752 707.926 120.467 707.926 125.852C707.926 130.681 712.022 133.095 717.793 134.209L737.528 137.924C755.214 141.267 764.523 152.409 764.523 165.781C764.523 183.424 749.257 196.609 722.448 196.609Z" fill="white"/>
<path d="M780.074 194.938V98.3666H803.346V194.938H780.074ZM776.164 68.4666C776.164 59.5523 782.68 53.238 791.617 53.238C800.367 53.238 807.069 59.5523 807.069 68.4666C807.069 77.1952 800.367 83.5095 791.617 83.5095C782.68 83.5095 776.164 77.1952 776.164 68.4666Z" fill="white"/>
<path d="M868.051 217.038C886.296 217.038 895.791 205.338 895.791 192.152V182.867C890.205 189.924 879.221 195.309 865.444 195.309C839.939 195.309 818.343 176.552 818.343 146.095C818.343 115.452 840.125 96.6952 865.444 96.6952C878.849 96.6952 890.019 102.638 895.791 110.252V98.3666H919.062V189.738C919.062 215.552 902.121 239.138 868.051 239.138C844.407 239.138 827.838 225.581 821.694 210.167L841.242 199.767C845.338 210.167 855.391 217.038 868.051 217.038ZM841.987 146.095C841.987 161.695 852.971 173.767 868.982 173.767C885.365 173.767 895.977 161.695 895.977 146.095C895.977 130.309 885.365 118.424 868.982 118.424C852.971 118.424 841.987 130.309 841.987 146.095Z" fill="white"/>
</svg>
